<?xml version="1.0" standalone="no"?>
<!DOCTYPE svg PUBLIC "-//W3C//DTD SVG 20010904//EN"
 "http://www.w3.org/TR/2001/REC-SVG-20010904/DTD/svg10.dtd">
<svg version="1.0" xmlns="http://www.w3.org/2000/svg"
 width="1125.000000pt" height="1214.000000pt" viewBox="0 0 1125.000000 1214.000000"
 preserveAspectRatio="xMidYMid meet">

<g transform="translate(0.000000,1214.000000) scale(0.100000,-0.100000)"
fill="#000000" stroke="none">
<path d="M0 6070 l0 -6070 5625 0 5625 0 0 6070 0 6070 -5625 0 -5625 0 0
-6070z m6025 4035 c121 -14 249 -30 285 -35 36 -5 99 -13 140 -19 41 -5 113
-17 160 -25 47 -9 126 -22 175 -31 90 -16 204 -38 280 -55 275 -61 280 -62
590 -146 282 -76 634 -189 860 -277 224 -86 483 -194 503 -210 9 -7 12 -104
12 -421 0 -477 -4 -543 -31 -541 -10 1 -20 3 -22 6 -3 2 -7 206 -11 453 -5
386 -8 450 -21 460 -15 10 -205 89 -325 134 -30 12 -118 45 -195 76 -142 55
-230 86 -365 126 -41 13 -109 33 -150 46 -135 42 -350 98 -497 129 -62 13
-141 31 -175 39 -35 8 -99 22 -143 31 -44 9 -98 20 -120 25 -63 14 -303 57
-385 69 -41 6 -118 17 -170 25 -136 21 -358 48 -535 66 -89 9 -136 9 -250 -4
-185 -20 -445 -53 -575 -72 -58 -9 -132 -20 -165 -24 -33 -5 -123 -20 -200
-35 -77 -14 -164 -30 -194 -35 -30 -5 -90 -18 -135 -29 -45 -11 -115 -27 -156
-36 -91 -20 -231 -52 -282 -65 -229 -59 -246 -62 -276 -45 -27 16 -26 16 26
12 28 -2 52 0 52 4 0 5 -5 9 -11 9 -5 0 -7 5 -4 10 3 6 16 10 29 10 12 0 26 4
32 9 23 22 593 167 924 235 217 45 572 99 865 131 83 9 155 18 160 20 23 8 92
4 300 -20z m20 -244 c90 -10 238 -30 460 -62 353 -50 920 -179 1301 -295 304
-93 621 -204 769 -269 17 -7 57 -23 90 -35 33 -13 64 -26 69 -31 6 -5 20 -9
32 -9 12 0 25 -7 28 -16 8 -21 6 -702 -3 -778 -5 -53 -8 -59 -31 -62 -14 -1
-31 -4 -39 -6 -25 -5 -30 61 -30 409 -1 182 -4 338 -7 347 -9 23 -291 130
-749 284 -33 11 -91 29 -130 40 -38 11 -95 27 -125 36 -30 8 -80 22 -110 30
-30 8 -131 34 -225 59 -173 46 -215 55 -365 81 -47 9 -134 24 -195 35 -60 11
-155 27 -210 36 -55 8 -127 20 -160 25 -107 17 -441 56 -560 65 -98 8 -460
-25 -715 -65 -115 -18 -253 -40 -325 -52 -38 -6 -189 -36 -335 -65 -146 -30
-285 -59 -310 -64 -80 -16 -124 -27 -180 -44 -30 -9 -72 -19 -93 -22 -20 -3
-40 -9 -43 -14 -3 -5 -20 -9 -38 -9 -17 0 -37 -5 -42 -10 -6 -6 -28 -11 -50
-13 -21 -1 -45 -8 -52 -14 -7 -7 -28 -13 -45 -12 l-32 1 35 10 c19 5 39 14 44
19 6 5 21 9 34 9 13 0 30 6 38 14 12 13 11 16 -8 22 -13 4 -33 7 -45 5 -11 -1
-24 3 -28 9 -5 8 11 10 56 6 59 -4 62 -3 39 9 l-25 14 27 1 c15 0 33 7 42 15
8 8 26 15 40 15 15 0 34 4 44 9 15 8 177 58 262 81 93 26 222 59 290 74 41 9
91 21 110 26 19 4 78 16 130 25 52 9 138 24 190 35 52 10 145 26 205 35 61 9
133 20 160 25 28 5 111 16 185 25 74 9 160 21 190 25 67 11 300 6 435 -9z
m-2308 -437 c-3 -3 -12 -4 -19 -1 -8 3 -5 6 6 6 11 1 17 -2 13 -5z m2360 -90
c203 -40 330 -97 541 -239 73 -50 158 -105 190 -124 l56 -34 246 -13 c135 -7
283 -20 330 -29 47 -9 108 -20 135 -25 179 -32 453 -158 505 -231 65 -90 17
-264 -84 -310 -35 -16 -68 -19 -222 -19 -195 0 -195 0 -208 55 -4 17 -23 62
-41 101 -81 168 -285 276 -442 234 -27 -7 -80 -28 -120 -46 -84 -39 -90 -40
-98 -15 -14 44 -42 46 -555 46 -358 0 -561 -5 -775 -18 -159 -10 -355 -23
-435 -27 -80 -5 -208 -14 -285 -19 -77 -6 -210 -13 -295 -17 l-155 -6 -59 36
c-110 67 -155 78 -295 75 l-124 -3 -32 49 c-17 28 -39 56 -48 64 -26 21 -20
40 16 45 188 28 281 30 952 21 347 -5 625 -4 870 5 524 18 1050 37 1053 39 25
13 -130 132 -304 232 -92 53 -209 97 -335 126 -58 13 -125 17 -304 17 -256 0
-451 -19 -681 -69 -38 -9 -89 -20 -114 -25 -25 -5 -72 -18 -104 -29 -62 -22
-106 -27 -106 -13 0 5 15 13 33 19 17 6 59 21 92 33 158 58 475 118 710 134
108 8 416 -5 492 -20z m-3517 -506 c0 -226 -2 -409 -5 -406 -3 3 -11 41 -18
84 -14 93 -11 647 4 652 5 2 9 10 9 18 0 9 -4 12 -10 9 -5 -3 -10 1 -10 10 0
9 5 13 11 9 8 -4 9 0 4 15 -4 12 -2 21 4 21 8 0 11 -127 11 -412z m3457 366
c30 -8 83 -101 86 -151 2 -33 -1 -38 -18 -35 -124 15 -115 11 -139 66 -13 28
-42 68 -64 88 -23 21 -42 41 -42 44 0 8 143 -2 177 -12z m-2557 -462 c0 -5 24
-8 52 -6 90 4 89 -7 -3 -68 -77 -51 -111 -66 -81 -36 7 7 12 36 12 65 0 29 5
53 10 53 6 0 10 -4 10 -8z m656 -251 c79 -36 89 -149 18 -211 -19 -16 -40 -30
-47 -31 -7 0 -21 -2 -31 -4 -26 -5 -88 28 -105 56 -47 78 -27 150 55 197 28
16 64 14 110 -7z m3128 -8 c70 -52 43 -187 -45 -223 -39 -17 -93 -5 -130 28
-58 52 -50 163 15 204 38 24 122 19 160 -9z m-884 -43 c0 -18 33 -40 60 -40
45 0 44 -15 -2 -55 -40 -33 -153 -95 -176 -95 -5 0 -12 17 -15 39 -2 21 -21
64 -41 96 -39 60 -41 74 -8 56 32 -17 86 -13 108 7 15 15 25 17 47 10 15 -6
27 -14 27 -18z m-913 -20 c19 -22 44 -40 55 -40 15 0 18 -4 12 -17 -4 -10 -10
-40 -13 -68 -6 -46 -8 -50 -31 -48 -14 2 -42 4 -63 6 -26 2 -42 10 -54 28 -23
33 -41 47 -90 70 -23 11 -45 23 -47 28 -3 5 27 12 67 16 81 7 89 10 106 43 6
12 14 22 18 22 3 0 21 -18 40 -40z m-1240 -142 c-3 -8 -6 -5 -6 6 -1 11 2 17
5 13 3 -3 4 -12 1 -19z m-17 -22 c0 -3 -4 -8 -10 -11 -5 -3 -10 -1 -10 4 0 6
5 11 10 11 6 0 10 -2 10 -4z m-30 -26 c0 -5 -5 -10 -11 -10 -5 0 -7 5 -4 10 3
6 8 10 11 10 2 0 4 -4 4 -10z m3962 -715 c134 -135 246 -245 250 -245 3 0 31
21 61 48 30 26 128 110 218 187 89 77 192 166 228 198 l65 57 358 0 c197 0
358 -4 358 -9 0 -4 -32 -35 -72 -67 -39 -33 -90 -75 -112 -95 -23 -19 -99 -82
-171 -139 -71 -56 -188 -151 -260 -210 -71 -59 -177 -145 -234 -191 -58 -46
-109 -92 -115 -101 -9 -15 33 -61 265 -295 462 -465 509 -513 509 -523 0 -6
-132 -10 -349 -10 l-349 0 -179 188 c-99 103 -210 221 -248 262 -38 41 -75 78
-82 83 -11 7 -77 -41 -163 -119 -19 -17 -62 -54 -96 -80 -75 -61 -138 -113
-167 -139 -12 -11 -55 -45 -94 -75 -40 -30 -73 -58 -73 -62 0 -5 -5 -8 -10 -8
-6 0 -22 -11 -36 -24 -32 -29 -113 -36 -421 -36 -167 0 -213 3 -213 13 0 7 12
20 28 29 15 10 43 31 62 48 19 18 113 98 208 178 96 81 199 169 230 195 32 26
86 72 122 101 36 30 76 63 90 76 14 12 71 58 127 103 57 45 103 89 103 96 0
20 -739 757 -767 766 -13 3 -23 13 -23 21 0 11 53 14 333 17 182 1 342 3 354
5 17 1 78 -54 265 -243z m-966 220 c2 -5 -126 -113 -284 -238 -529 -420 -692
-555 -692 -570 0 -7 27 -40 60 -72 218 -216 722 -737 717 -741 -3 -4 -158 -8
-343 -11 l-337 -5 -121 124 c-67 68 -181 187 -255 266 -74 78 -141 142 -149
142 -11 0 -303 -235 -322 -260 -3 -4 -42 -35 -87 -69 -46 -34 -85 -67 -88 -72
-4 -5 -11 -9 -17 -9 -6 0 -1 11 11 24 13 14 20 29 16 35 -3 7 2 11 14 11 12 0
21 6 21 14 0 19 29 48 41 41 5 -4 9 1 9 10 0 11 5 15 15 11 8 -3 15 -1 15 4 0
16 -18 20 -45 10 -30 -11 -55 -3 -34 11 11 8 8 14 -13 32 -16 13 -28 28 -28
35 0 7 -10 12 -22 12 -13 0 -32 7 -42 15 -26 20 -95 20 -102 0 -4 -8 -10 -15
-15 -15 -5 0 -4 9 3 20 10 15 10 22 0 32 -9 9 -12 8 -12 -6 0 -12 -5 -16 -15
-12 -10 4 -15 -1 -15 -14 0 -13 -5 -17 -14 -14 -21 8 -106 -53 -106 -75 0 -6
-6 -11 -13 -11 -7 0 -27 -12 -45 -27 -52 -47 -72 -63 -77 -63 -3 0 -13 -8 -23
-17 -10 -10 -44 -42 -75 -71 -31 -30 -57 -58 -57 -63 0 -5 80 -9 188 -9 103
-1 205 -3 227 -6 38 -6 64 -19 54 -28 -2 -2 -305 -7 -674 -11 l-670 -6 -89 98
c-49 54 -163 176 -253 270 -180 188 -169 183 -230 126 -16 -16 -47 -41 -69
-56 -21 -15 -55 -42 -75 -60 -73 -64 -89 -77 -89 -67 0 6 7 13 15 16 8 4 15
12 15 20 0 8 7 14 15 14 8 0 15 4 15 8 0 12 77 92 89 92 6 0 11 10 11 21 0 19
-4 21 -39 15 -34 -5 -52 1 -130 40 -73 37 -98 45 -131 42 -22 -2 -42 1 -44 7
-2 5 -7 6 -12 2 -4 -4 -3 -17 4 -27 7 -11 8 -20 3 -20 -5 0 -11 6 -14 13 -5
15 -50 -6 -88 -43 -35 -34 -63 -57 -135 -110 -34 -25 -87 -67 -117 -95 -31
-27 -82 -70 -112 -95 -100 -80 -168 -151 -155 -164 7 -7 82 -12 213 -15 192
-3 260 -12 226 -31 -23 -13 -609 -24 -609 -12 0 6 13 21 29 34 15 13 59 50 97
83 38 33 92 78 118 100 27 22 95 78 150 125 120 101 225 187 246 204 8 6 76
62 150 125 74 62 150 123 167 135 18 11 33 28 33 36 0 8 -173 188 -385 400
l-385 385 62 6 c35 4 191 7 348 8 l285 1 237 -237 c130 -131 242 -239 250
-241 7 -1 65 44 128 100 132 116 390 334 435 366 30 21 34 21 735 26 l706 5
239 -239 c132 -132 244 -240 250 -240 5 0 26 15 45 33 32 29 137 119 185 158
11 10 49 41 84 70 109 91 171 142 228 187 l55 42 346 -2 c219 -2 346 -7 348
-13z m-3886 -2028 c69 -35 82 -69 78 -199 -4 -115 -12 -138 -72 -182 -25 -19
-44 -21 -228 -24 -139 -3 -204 0 -212 8 -14 14 -21 221 -11 336 l7 84 196 0
c185 -1 200 -2 242 -23z m800 -7 l0 -30 -157 0 c-87 0 -164 -4 -171 -9 -9 -5
-12 -25 -10 -57 l3 -49 135 -2 c166 -3 182 -7 178 -36 -3 -21 -7 -22 -147 -25
-86 -1 -150 -7 -158 -14 -20 -16 -17 -114 3 -122 9 -3 88 -6 176 -6 l159 0 -3
-22 c-3 -23 -4 -23 -212 -26 -145 -2 -213 1 -222 9 -11 9 -14 53 -14 209 0
108 3 200 7 203 3 4 102 7 220 7 l213 0 0 -30z m756 15 c13 -32 -15 -45 -93
-45 -118 0 -113 9 -113 -195 l0 -175 -44 0 c-27 0 -46 5 -49 13 -3 8 -6 87 -7
177 0 90 -3 167 -6 172 -3 4 -45 8 -94 8 -79 0 -91 2 -100 20 -6 11 -8 25 -5
30 4 6 104 10 256 10 214 0 250 -2 255 -15z m537 -42 c55 -93 197 -358 197
-368 0 -3 -20 -5 -45 -5 -40 0 -46 3 -61 33 -34 67 -34 67 -180 67 -124 0
-135 -2 -153 -22 -12 -12 -24 -31 -27 -42 -4 -12 -12 -24 -18 -28 -13 -9 -86
-11 -86 -2 0 8 143 276 177 332 58 95 54 92 110 92 l52 0 34 -57z m536 40 c5
-10 10 -104 10 -209 2 -212 0 -218 -61 -212 l-33 3 -3 205 c-1 112 0 210 2
217 8 20 74 16 85 -4z m394 -3 c3 -11 6 -91 6 -177 1 -89 6 -162 12 -169 7 -9
53 -13 147 -13 135 -1 157 -7 146 -36 -8 -20 -343 -36 -388 -19 -14 5 -16 34
-16 213 0 114 3 211 7 214 3 4 23 7 44 7 28 0 38 -5 42 -20z m662 -195 l0
-210 -43 0 -44 0 -5 189 c-5 237 -5 238 50 234 l42 -3 0 -210z m525 99 c69
-63 142 -133 162 -155 21 -21 42 -39 47 -39 7 0 12 58 13 153 l3 152 40 0 40
0 3 -212 c2 -167 0 -213 -10 -214 -7 0 -26 -2 -42 -4 -26 -4 -42 8 -120 83
-187 181 -228 217 -244 217 -15 0 -18 -18 -22 -145 l-5 -145 -37 -3 -38 -3 0
215 0 216 43 0 c41 0 49 -5 167 -116z m1084 110 c9 -3 16 -15 16 -25 0 -18 -9
-19 -112 -19 -155 -1 -246 -14 -271 -38 -15 -16 -20 -38 -25 -111 -9 -161 13
-181 196 -181 137 0 145 4 140 72 l-3 43 -57 5 c-61 5 -90 22 -71 41 14 14
184 21 200 7 9 -7 13 -41 13 -109 l0 -99 -27 -7 c-47 -12 -334 -9 -380 5 -24
7 -54 27 -72 47 l-31 36 0 124 c0 124 0 125 30 158 16 19 44 39 62 44 35 12
366 17 392 7z m-6065 -213 c10 -6 10 -10 2 -16 -17 -10 -195 -9 -331 1 l-115
9 95 6 c159 9 334 9 349 0z m6631 -11 c-115 -11 -208 -11 -215 0 -4 7 45 9
142 8 128 -1 138 -2 73 -8z m-1096 -570 c17 -6 17 -8 2 -22 -9 -9 -16 -23 -16
-30 -1 -7 -13 -34 -28 -59 -171 -288 -513 -630 -962 -965 -94 -70 -376 -264
-384 -264 -2 0 -54 -31 -114 -69 -61 -38 -120 -71 -132 -73 -30 -4 -72 48 -50
62 11 7 8 11 -14 19 -15 6 -32 8 -38 5 -7 -4 -8 -2 -4 4 4 7 17 12 29 13 18 0
19 2 5 7 -13 5 11 27 98 87 63 44 121 86 129 93 7 6 16 12 19 12 8 0 117 76
223 154 44 34 93 70 109 81 85 62 332 264 409 335 146 134 345 339 413 425 35
44 84 106 109 138 l46 58 66 -2 c36 -1 74 -5 85 -9z m272 -57 c-4 -11 -2 -13
9 -9 11 4 15 -2 15 -24 0 -17 -3 -30 -8 -30 -4 0 -14 -15 -21 -32 -22 -50
-148 -243 -220 -337 -125 -162 -305 -349 -501 -519 -80 -69 -147 -128 -150
-132 -3 -3 -27 -24 -55 -45 -27 -22 -60 -49 -73 -60 -13 -11 -72 -53 -130 -93
-219 -150 -303 -207 -320 -217 -9 -5 -22 -16 -30 -23 -8 -7 -33 -21 -57 -32
-24 -11 -47 -25 -50 -30 -4 -6 -10 -8 -15 -5 -4 3 -11 -2 -14 -11 -3 -9 -13
-14 -20 -11 -8 3 -17 -2 -21 -11 -5 -14 -7 -14 -15 -2 -8 12 -10 10 -10 -7 0
-16 -6 -23 -17 -22 -11 0 -13 3 -5 6 6 2 12 12 12 22 0 9 -6 23 -12 30 -11 11
-9 11 10 2 24 -13 29 -3 10 18 -7 8 -8 11 -2 8 6 -4 19 2 29 13 10 11 27 20
37 20 11 0 17 4 14 8 -2 4 56 50 130 102 75 52 143 103 151 113 9 9 22 17 29
17 7 0 14 3 16 8 2 4 21 20 43 36 66 49 325 257 400 321 119 102 386 374 491
500 110 132 304 397 304 415 0 7 7 9 16 6 8 -3 12 -2 9 4 -8 14 4 32 16 24 6
-3 8 -13 5 -21z m-2536 -146 c0 -1 11 -33 25 -70 41 -113 75 -147 183 -182 55
-18 63 -34 21 -46 -111 -31 -130 -42 -160 -89 -20 -32 -49 -117 -49 -146 0
-12 -8 -32 -18 -45 l-19 -22 -7 44 c-7 48 -41 140 -65 178 -21 33 -77 66 -139
80 -28 7 -54 17 -57 21 -3 5 20 16 50 26 73 22 140 66 164 105 11 18 28 58 38
90 10 33 21 59 26 59 4 0 7 -1 7 -3z m-1788 -190 c84 -83 185 -180 223 -213
171 -150 239 -207 312 -261 43 -32 80 -60 83 -63 37 -37 391 -281 494 -340 17
-9 78 -46 136 -80 119 -71 322 -184 453 -250 l87 -44 0 -102 c0 -62 -4 -105
-11 -109 -13 -9 -61 11 -126 52 -29 18 -54 33 -57 33 -3 0 -47 24 -98 54 -51
29 -124 70 -163 91 -216 117 -691 429 -841 554 -17 14 -51 42 -75 61 -346 276
-669 604 -669 678 0 17 7 38 16 46 14 15 13 16 -7 16 -22 0 -22 0 -3 15 10 8
36 15 56 15 35 0 47 -10 190 -153z m2569 26 l30 -6 -27 -28 c-18 -19 -27 -38
-26 -59 1 -34 -5 -37 -34 -16 -10 8 -29 12 -41 9 -19 -4 -23 -1 -23 16 0 12
-14 35 -30 50 l-31 28 41 12 c32 9 44 19 52 42 l10 30 25 -36 c16 -23 35 -38
54 -42z m-2831 47 c0 -11 -2 -20 -4 -20 -2 0 -6 9 -9 20 -3 11 -1 20 4 20 5 0
9 -9 9 -20z m1347 -10 c14 -28 31 -40 61 -40 28 0 28 -6 -4 -34 -17 -14 -26
-32 -26 -49 0 -29 -16 -35 -36 -15 -10 10 -17 10 -31 1 -22 -14 -31 -8 -31 23
0 12 -11 31 -25 42 -31 25 -31 28 2 37 37 9 53 23 53 47 0 25 21 18 37 -12z
m-1384 -300 c126 -139 395 -381 649 -581 139 -110 538 -384 655 -450 119 -68
194 -111 298 -174 135 -81 246 -143 383 -211 l92 -46 0 -49 c0 -26 -4 -50 -10
-54 -5 -3 -27 6 -49 20 -23 14 -43 25 -47 25 -3 0 -18 8 -32 18 -15 11 -88 50
-162 88 -74 37 -158 83 -187 101 -29 18 -54 33 -56 33 -5 0 -261 155 -397 240
-185 115 -519 360 -710 520 -164 138 -513 490 -529 533 -2 6 -15 22 -27 36
-16 17 -20 29 -14 35 6 6 10 18 10 27 0 20 63 -32 133 -111z m2644 -786 c-3
-3 -12 -4 -19 -1 -8 3 -5 6 6 6 11 1 17 -2 13 -5z m263 -264 c0 -5 -4 -10 -10
-10 -5 0 -10 5 -10 10 0 6 5 10 10 10 6 0 10 -4 10 -10z"/>
<path d="M7560 8718 c0 -8 27 -51 59 -95 79 -108 123 -130 277 -138 60 -4 115
-2 121 2 15 11 28 92 19 126 -7 29 -24 34 -241 78 -210 42 -235 45 -235 27z"/>
<path d="M7866 6367 c3 -10 9 -15 12 -12 3 3 0 11 -7 18 -10 9 -11 8 -5 -6z"/>
<path d="M7828 6353 c-24 -6 -23 -23 2 -23 11 0 20 7 20 15 0 8 -1 14 -2 14
-2 -1 -11 -3 -20 -6z"/>
<path d="M7350 6335 c0 -5 5 -17 10 -25 5 -8 10 -10 10 -5 0 6 -5 17 -10 25
-5 8 -10 11 -10 5z"/>
<path d="M7692 6240 c-12 -11 -25 -20 -30 -20 -5 0 -14 -11 -20 -25 -11 -23
-16 -25 -52 -19 -27 4 -40 3 -40 -5 0 -6 11 -11 25 -11 14 0 25 -5 25 -10 0
-6 16 0 35 12 19 13 35 29 35 36 0 7 3 12 8 10 4 -2 20 9 36 24 33 32 12 40
-22 8z"/>
<path d="M7610 6205 c0 -8 5 -15 10 -15 6 0 10 7 10 15 0 8 -4 15 -10 15 -5 0
-10 -7 -10 -15z"/>
<path d="M7440 6200 c0 -5 18 -10 40 -10 22 0 40 5 40 10 0 6 -18 10 -40 10
-22 0 -40 -4 -40 -10z"/>
<path d="M7184 6174 c-18 -15 -18 -15 6 -10 14 3 36 6 49 6 29 0 25 5 -10 13
-16 4 -33 1 -45 -9z"/>
<path d="M7312 6169 c17 -7 38 -7 60 0 30 8 28 9 -27 9 -50 0 -56 -1 -33 -9z"/>
<path d="M7425 6170 c-14 -6 -4 -9 38 -9 32 -1 57 3 57 9 0 12 -67 12 -95 0z"/>
<path d="M4613 7647 c-61 -45 -215 -168 -598 -478 -219 -177 -315 -261 -315
-272 0 -7 117 -129 261 -272 143 -143 318 -320 389 -392 71 -73 137 -133 146
-133 19 0 107 68 269 210 61 53 142 122 180 154 39 33 104 90 145 127 83 75
232 199 327 273 l63 49 -16 27 c-20 32 -674 694 -725 733 -20 15 -40 27 -45
27 -5 0 -41 -24 -81 -53z"/>
<path d="M2871 6714 c0 -11 3 -14 6 -6 3 7 2 16 -1 19 -3 4 -6 -2 -5 -13z"/>
<path d="M2960 6630 c0 -5 5 -10 11 -10 5 0 7 5 4 10 -3 6 -8 10 -11 10 -2 0
-4 -4 -4 -10z"/>
<path d="M2946 5644 c-3 -9 -6 -73 -6 -144 0 -71 3 -135 6 -144 5 -13 25 -16
115 -16 118 0 169 13 188 48 6 12 11 62 11 112 0 50 -5 100 -11 112 -19 35
-70 48 -188 48 -90 0 -110 -3 -115 -16z"/>
<path d="M5237 5544 c-26 -41 -45 -80 -42 -85 8 -12 182 -12 190 1 4 6 -4 27
-17 48 -13 20 -31 54 -40 74 -9 21 -23 38 -30 38 -7 0 -34 -34 -61 -76z"/>
<path d="M6705 3300 c3 -5 11 -10 16 -10 6 0 7 5 4 10 -3 6 -11 10 -16 10 -6
0 -7 -4 -4 -10z"/>
<path d="M6670 3285 c0 -8 5 -15 10 -15 6 0 10 7 10 15 0 8 -4 15 -10 15 -5 0
-10 -7 -10 -15z"/>
</g>
</svg>
